<?xml version="1.0" encoding="UTF-8" standalone="no"?>
<svg
   xmlns:dc="http://purl.org/dc/elements/1.1/"
   xmlns:cc="http://creativecommons.org/ns#"
   xmlns:rdf="http://www.w3.org/1999/02/22-rdf-syntax-ns#"
   xmlns:svg="http://www.w3.org/2000/svg"
   xmlns="http://www.w3.org/2000/svg"
   xmlns:sodipodi="http://sodipodi.sourceforge.net/DTD/sodipodi-0.dtd"
   xmlns:inkscape="http://www.inkscape.org/namespaces/inkscape"
   version="1.1"
   height="256"
   width="256"
   id="svg66"
   sodipodi:docname="icon.svg"
   inkscape:version="1.0.2 (e86c8708, 2021-01-15)"
   inkscape:export-xdpi="96"
   inkscape:export-ydpi="96">
  <metadata
     id="metadata72">
    <rdf:RDF>
      <cc:Work
         rdf:about="">
        <dc:format>image/svg+xml</dc:format>
        <dc:type
           rdf:resource="http://purl.org/dc/dcmitype/StillImage" />
        <dc:title />
      </cc:Work>
    </rdf:RDF>
  </metadata>
  <defs
     id="defs70" />
  <sodipodi:namedview
     pagecolor="#ffffff"
     bordercolor="#666666"
     borderopacity="1"
     objecttolerance="10"
     gridtolerance="10"
     guidetolerance="10"
     inkscape:pageopacity="0"
     inkscape:pageshadow="2"
     inkscape:window-width="1409"
     inkscape:window-height="840"
     id="namedview68"
     showgrid="false"
     inkscape:zoom="1"
     inkscape:cx="116.92217"
     inkscape:cy="94.940512"
     inkscape:window-x="71"
     inkscape:window-y="25"
     inkscape:window-maximized="0"
     inkscape:current-layer="svg66"
     inkscape:document-rotation="0" />
  <path
     style="fill:#e1712b;stroke-width:2.84267;fill-opacity:1"
     d="M 83.460938,248 A 128,128 0 0 0 128,256 a 128,128 0 0 0 44.53906,-8 z"
     id="path61" />
  <path
     style="fill:#eb9935;stroke-width:2.84267;fill-opacity:1"
     d="m 48.099609,228 a 128,128 0 0 0 11.199219,8 H 196.69922 a 128,128 0 0 0 11.19922,-8 z"
     id="path59" />
  <path
     style="fill:#f8cb43;stroke-width:2.84267;fill-opacity:1"
     d="m 25.005859,204 a 128,128 0 0 0 10.044922,12 H 220.94922 a 128,128 0 0 0 10.04492,-12 z"
     id="path57" />
  <path
     style="fill:#fddc48;stroke-width:2.84267;fill-opacity:1"
     d="M 127.67578,0 A 128,128 0 0 0 0,128 128,128 0 0 0 17.148438,192 H 238.84961 A 128,128 0 0 0 256,128 128,128 0 0 0 128,0 128,128 0 0 0 127.67578,0 Z"
     id="path43" />
  <g
     aria-label="A"
     id="text22"
     style="font-size:243.323px;line-height:1.25;font-family:'Cooper Hewitt';-inkscape-font-specification:'Cooper Hewitt';word-spacing:0px;fill:#e1712b;fill-opacity:1;stroke-width:6.08309">
    <path
       d="M 123.13354,51.25217 98.557919,123.76242 H 147.46584 Z M 49.16335,187.99969 v -9.97624 l 20.439132,-3.1632 51.827798,-150.860256 h 15.32935 l 51.8278,151.833546 18.24922,2.18991 v 9.97624 H 140.6528 v -9.97624 l 23.84565,-2.91987 -13.38276,-39.90498 H 94.664751 l -13.626088,39.66165 23.845657,3.1632 v 9.97624 z"
       style="font-style:normal;font-variant:normal;font-weight:normal;font-stretch:normal;font-family:'Source Serif Pro';-inkscape-font-specification:'Source Serif Pro';fill:#e1712b;fill-opacity:1;stroke-width:6.08309"
       id="path25" />
  </g>
</svg>
